<svg width="51" height="33" viewBox="0 0 51 33" fill="none" xmlns="http://www.w3.org/2000/svg">
<path d="M1 32.2201C3.05422 32.1493 5.09794 31.1524 6.59258 29.7228C7.20545 29.1366 7.76716 28.4588 8.23807 27.7545C9.60898 25.7045 11.0115 23.6779 12.3016 21.5747C13.7957 19.1388 15.1688 16.6781 16.2275 14.0191C17.1275 11.7585 18.0342 9.39013 18.6296 7.02445C19.0494 5.3562 19.6258 3.19446 19.3174 1.45833C19.1045 0.259729 18.064 1.7423 17.8465 2.16732C17.1245 3.5781 17.0288 5.14506 16.9047 6.69641C16.6987 9.27191 16.5732 11.8505 16.4761 14.4318C16.3551 17.6504 17.0262 20.8003 16.8836 24.0297C16.7976 25.9757 16.6354 27.9811 15.4021 29.5746C14.368 30.9108 12.7339 32.0774 11.0423 32.3789C9.50129 32.6535 8.0983 31.9415 6.73014 31.3101C5.89746 30.9258 1.82013 28.7472 3.88359 27.4159C4.56473 26.9765 5.48485 27.212 6.18517 27.4477C7.38843 27.8526 8.52942 28.588 9.76188 28.8868C10.6642 29.1056 11.4399 29.4337 12.3968 29.49C13.7222 29.568 15.0557 29.4756 16.3227 29.0614C17.5986 28.6443 18.7655 27.9157 19.9206 27.2466C20.9604 26.6443 21.8891 25.9466 22.619 24.9821C22.9444 24.5521 23.1849 24.0754 23.3809 23.5747C23.4631 23.3645 23.4541 23.1514 23.5714 22.9609C23.6604 22.8161 23.8117 22.5022 23.5819 22.8974C22.9025 24.066 22.1796 25.2176 21.5449 26.4106C21.3239 26.826 19.9009 29.2 20.7777 29.6593C21.4145 29.9928 22.4647 28.5873 22.7036 28.1249C23.5772 26.4342 26.4918 21.5228 25.5714 23.1884C25.1382 23.9722 24.8367 24.8353 24.4655 25.6487C24.069 26.5178 23.4965 27.4093 23.2909 28.3524C23.0684 29.3735 24.0691 29.2315 24.5714 28.7069C25.1081 28.1463 25.4496 27.4261 25.9841 26.8551C26.5864 26.2115 27.0803 25.3937 27.5079 24.6223C27.852 24.0013 28.1775 23.4732 28.6031 22.8974C28.7185 22.7413 29.1754 22.168 28.8041 22.6011C28.2468 23.2514 27.8549 24.3472 27.5502 25.1091C27.169 26.062 26.3859 27.491 26.7354 28.5588C27.1629 29.8651 28.7013 28.795 29.3174 28.2043C30.1798 27.3773 30.7978 26.4128 31.3068 25.3419C31.6119 24.6999 31.8116 23.9604 32.238 23.3842C32.3341 23.2543 32.4287 23.1273 32.5184 22.9927C32.5736 22.9099 32.7873 22.799 32.6983 22.7546C32.4731 22.6419 31.7585 24.4638 31.7565 24.4688C31.4662 25.2282 31.2094 26.0047 30.9682 26.781C30.8361 27.2058 30.5811 27.7852 30.6401 28.2519C30.7124 28.8229 31.4286 29.3896 32.0052 29.0879C32.6623 28.7441 33.0577 27.9999 33.4232 27.3948C33.8463 26.6941 34.298 25.9866 34.6295 25.236C34.9857 24.4296 35.3268 23.5973 35.6031 22.7599C35.7024 22.4588 35.9695 21.8017 35.8147 21.4689C35.6429 21.0994 34.4869 23.1943 34.4443 23.4212C34.1339 25.0767 36.4393 23.6173 36.9576 23.6487C37.0974 23.6572 35.8588 26.7731 35.7512 27.1302C35.5835 27.6868 35.1076 28.4951 35.3703 29.0773C35.8004 30.0307 36.8402 29.3064 37.3438 28.8339C38.4901 27.7584 38.9931 26.4132 39.7618 25.0879C40.485 23.8409 41.071 22.4922 41.8993 21.3101C43.3121 19.2942 45.1121 17.5203 46.3226 15.3683C46.6854 14.7234 46.9106 14.0934 47.1586 13.4054C47.4807 12.5117 47.9508 11.6818 48.2697 10.7811C48.887 9.03735 49.3868 7.19635 49.7353 5.37895C49.8573 4.74305 49.9581 3.97237 49.5766 3.40012C49.2792 2.95411 47.3072 6.8945 47.1586 7.22551C45.3444 11.2662 43.9076 15.4129 43.1269 19.7863C42.7294 22.0127 42.2884 24.4952 42.6613 26.7598C42.8395 27.8422 43.4241 29.6638 44.8306 29.6487C45.9448 29.6367 47.0427 28.6288 48.0157 28.1884C48.358 28.0335 48.594 27.9261 48.9046 28.0297" stroke="#FFF7D6" stroke-linecap="round" stroke-linejoin="round"/>
<path d="M33.0951 19.0773C33.0452 19.1565 32.6156 19.6766 32.8729 19.8128C33.0057 19.8831 32.8911 19.5127 32.9047 19.363" stroke="#FFF7D6" stroke-linecap="round" stroke-linejoin="round"/>
</svg>
