<svg width="128" height="128" xmlns="http://www.w3.org/2000/svg">

 <g>
  <title>background</title>
  <rect fill="none" id="canvas_background" height="402" width="582" y="-1" x="-1"/>
 </g>
 <g>
  <title>Layer 1</title>
  <path id="svg_3" fill="#ffffff" d="m120,0l-96,0c-4.422,0 -8,3.582 -8,8l0,22.234c2.367,-2.133 5.063,-3.738 8,-4.781l0,-17.453l96,0l0,112l-96,0l0,-17.453c-2.938,-1.043 -5.633,-2.648 -8,-4.781l0,22.234c0,4.418 3.578,8 8,8l96,0c4.422,0 8,-3.582 8,-8l0,-112c0,-4.418 -3.578,-8 -8,-8z"/>
  <path id="svg_4" fill="#ffffff" d="m32,40c2.047,0 4.094,0.781 5.656,2.344c3.125,3.125 3.125,8.188 0,11.313l-2.343,2.343l28.687,0c4.422,0 8,3.582 8,8s-3.578,8 -8,8l-28.687,0l2.344,2.344c3.125,3.125 3.125,8.188 0,11.313c-1.563,1.562 -3.61,2.343 -5.657,2.343s-4.094,-0.781 -5.656,-2.344l-16,-16c-3.125,-3.125 -3.125,-8.188 0,-11.313l16,-16c1.562,-1.562 3.609,-2.343 5.656,-2.343m0,-8c-4.273,0 -8.289,1.664 -11.313,4.688l-16,16c-3.023,3.023 -4.687,7.039 -4.687,11.312s1.664,8.289 4.688,11.313l16,16c3.023,3.023 7.039,4.687 11.312,4.687s8.289,-1.664 11.313,-4.688c3.117,-3.117 4.68,-7.215 4.68,-11.313l16.007,0c8.82,0 16,-7.176 16,-16c0,-8.82 -7.18,-16 -16,-16l-16.008,0c0,-4.098 -1.563,-8.195 -4.68,-11.313c-3.023,-3.022 -7.039,-4.686 -11.312,-4.686l0,0z"/>
  <path id="svg_5" fill="#ffffff" d="m104,24l0,80l-8,0l0,-80l8,0m8,-8l-24,0l0,96l24,0l0,-96l0,0z"/>
 </g>
</svg>