<svg width="13" height="13" viewBox="0 0 13 13" fill="none" xmlns="http://www.w3.org/2000/svg">
<path fill-rule="evenodd" clip-rule="evenodd" d="M9.53334 7.67123V6.52454H7.09506V4.17522H5.90495V6.52454H3.46667V7.67123H5.90495V10.0205H7.09506V7.67123H9.53334ZM11.6411 1.30935C12.0078 1.30935 12.3259 1.43925 12.5956 1.69904C12.8652 1.95883 13 2.26539 13 2.6187V11.6906C13 12.044 12.8652 12.3505 12.5956 12.6103C12.3259 12.8701 12.0078 13 11.6411 13H1.35893C0.98145 13 0.660594 12.8701 0.396356 12.6103C0.132117 12.3505 0 12.044 0 11.6906V2.6187C0 2.26539 0.132117 1.95883 0.396356 1.69904C0.660594 1.43925 0.98145 1.30935 1.35893 1.30935H2.02222V0H3.38116V1.30935H9.61884V0H10.9778V1.30935H11.6411Z" fill="#FF5A5F"/>
</svg>
